<svg width="27" height="24" viewBox="0 0 27 24" fill="none" xmlns="http://www.w3.org/2000/svg">
<g clip-path="url(#clip0_25_9)">
<path fill-rule="evenodd" clip-rule="evenodd" d="M8.46932 5.99207C8.41332 6.41027 8.457 7.07246 8.457 7.5169C8.457 8.79552 8.3989 17.7054 8.48173 17.9816L15.2018 17.9806L15.1922 5.99214L8.46932 5.99207Z" fill="white" fill-opacity="0.7"/>
<path fill-rule="evenodd" clip-rule="evenodd" d="M0.0249634 17.9815H0.0823906L6.61626 17.9842L6.77018 17.968L6.7623 5.99222L0.0360296 5.9917L0.0249634 6.12882V17.9815Z" fill="white" fill-opacity="0.7"/>
<path fill-rule="evenodd" clip-rule="evenodd" d="M16.8889 6.74979C16.8889 7.25601 16.8344 10.7474 16.9311 11.0588L19.2034 18.5361C19.6092 18.4937 25.5678 17.0187 25.6275 16.9766L22.1556 5.44226C21.3137 5.59152 20.3404 5.87202 19.4964 6.07136L17.1632 6.62922C17.0096 6.66462 16.9512 6.65009 16.8889 6.74979Z" fill="white" fill-opacity="0.7"/>
<path fill-rule="evenodd" clip-rule="evenodd" d="M0.000305176 4.49409C0.954016 4.49439 6.27479 4.52606 6.77026 4.48291C6.77026 3.502 6.82492 2.39165 6.76439 1.42654C6.70847 0.534753 6.01633 0.00170898 4.96218 0.00170898H1.80838C0.677108 0.00170898 0.0251204 0.593922 0.0251204 1.59957L0.000305176 4.49409Z" fill="white" fill-opacity="0.7"/>
<path fill-rule="evenodd" clip-rule="evenodd" d="M8.45697 4.49409C10.605 4.49409 13.0962 4.52733 15.202 4.49178C15.202 3.50692 15.2585 2.38323 15.1951 1.41536C15.1339 0.482737 14.3951 0.00170898 13.3962 0.00170898H10.2733C9.12002 0.00170898 8.45697 0.578198 8.45697 1.59957V4.49409Z" fill="white" fill-opacity="0.7"/>
<path fill-rule="evenodd" clip-rule="evenodd" d="M8.45696 19.4886C8.45696 20.22 8.34294 22.6374 8.6066 23.1332C9.17014 24.1927 10.3531 23.981 11.8347 23.981C12.395 23.981 13.4141 24.0317 13.9167 23.9416C14.4532 23.8454 14.8869 23.4999 15.0701 23.1045C15.3012 22.6063 15.202 20.2137 15.202 19.4888L8.45696 19.4886Z" fill="white" fill-opacity="0.7"/>
<path fill-rule="evenodd" clip-rule="evenodd" d="M0.0250074 19.4886C0.0250074 20.2294 -0.0901823 22.6328 0.174486 23.1409C0.719918 24.188 1.95288 23.981 3.41086 23.981C4.85552 23.981 6.12738 24.1751 6.63785 23.0959C6.87628 22.5918 6.77015 20.2273 6.77015 19.4891L0.0250074 19.4886Z" fill="white" fill-opacity="0.7"/>
<path fill-rule="evenodd" clip-rule="evenodd" d="M19.6378 19.9918C19.7702 20.5883 20.4432 22.948 20.706 23.3008C21.5303 24.4077 22.7514 23.8646 24.1438 23.5362C25.4437 23.2297 26.8579 23.0648 26.9942 21.8713C27.0464 21.4142 26.7338 20.5484 26.5983 20.1082C26.4988 19.7854 26.2239 18.675 26.0907 18.4622L19.6378 19.9918Z" fill="white" fill-opacity="0.7"/>
<path fill-rule="evenodd" clip-rule="evenodd" d="M21.72 3.97374C21.694 3.75331 21.5515 3.34457 21.4795 3.10841C21.2837 2.4653 20.9222 0.952166 20.5987 0.602741C19.5381 -0.542934 18.3903 0.270157 16.889 0.507578L16.8909 5.15079L21.72 3.97374Z" fill="white" fill-opacity="0.7"/>
</g>
<defs>
<clipPath id="clip0_25_9">
<rect width="27" height="24" fill="white"/>
</clipPath>
</defs>
</svg>
