<svg width="24" height="31" viewBox="0 0 24 31" fill="none" xmlns="http://www.w3.org/2000/svg">
<path d="M5.14286 0C2.30357 0 0 2.58311 0 5.76693V24.99C0 28.1739 2.30357 30.757 5.14286 30.757H20.5714H22.2857C23.2339 30.757 24 29.8979 24 28.8347C24 27.7714 23.2339 26.9124 22.2857 26.9124V23.0677C23.2339 23.0677 24 22.2087 24 21.1454V1.92231C24 0.859033 23.2339 0 22.2857 0H20.5714H5.14286ZM5.14286 23.0677H18.8571V26.9124H5.14286C4.19464 26.9124 3.42857 26.0533 3.42857 24.99C3.42857 23.9268 4.19464 23.0677 5.14286 23.0677ZM6.85714 8.6504C6.85714 8.12177 7.24286 7.68925 7.71429 7.68925H18C18.4714 7.68925 18.8571 8.12177 18.8571 8.6504C18.8571 9.17904 18.4714 9.61156 18 9.61156H7.71429C7.24286 9.61156 6.85714 9.17904 6.85714 8.6504ZM7.71429 11.5339H18C18.4714 11.5339 18.8571 11.9664 18.8571 12.495C18.8571 13.0237 18.4714 13.4562 18 13.4562H7.71429C7.24286 13.4562 6.85714 13.0237 6.85714 12.495C6.85714 11.9664 7.24286 11.5339 7.71429 11.5339Z" fill="white" fill-opacity="0.7"/>
</svg>
