<svg width="27" height="24" viewBox="0 0 27 24" fill="none" xmlns="http://www.w3.org/2000/svg">
<path d="M9.70312 2.25H17.2969C17.5289 2.25 17.7188 2.41875 17.7188 2.625V4.5H9.28125V2.625C9.28125 2.41875 9.47109 2.25 9.70312 2.25ZM6.75 2.625V4.5H3.375C1.51348 4.5 0 5.84531 0 7.5V12H10.125H16.875H27V7.5C27 5.84531 25.4865 4.5 23.625 4.5H20.25V2.625C20.25 1.17656 18.9264 0 17.2969 0H9.70312C8.07363 0 6.75 1.17656 6.75 2.625ZM27 13.5H16.875V15C16.875 15.8297 16.1209 16.5 15.1875 16.5H11.8125C10.8791 16.5 10.125 15.8297 10.125 15V13.5H0V19.5C0 21.1547 1.51348 22.5 3.375 22.5H23.625C25.4865 22.5 27 21.1547 27 19.5V13.5Z" fill="white" fill-opacity="0.7"/>
</svg>
