<svg width="27" height="22" viewBox="0 0 27 22" fill="none" xmlns="http://www.w3.org/2000/svg">
<g clip-path="url(#clip0_38_1018)">
<path d="M6.75 2.7C6.75 1.21078 7.96078 0 9.45 0H24.3C25.7892 0 27 1.21078 27 2.7V14.85C27 16.3392 25.7892 17.55 24.3 17.55H14.2087C13.7109 16.4742 12.9473 15.5461 11.9981 14.85H16.2V13.5C16.2 12.7533 16.8033 12.15 17.55 12.15H20.25C20.9967 12.15 21.6 12.7533 21.6 13.5V14.85H24.3V2.7H9.45V4.77141C8.65688 4.31156 7.73297 4.05 6.75 4.05V2.7ZM6.75 5.4C7.28185 5.4 7.8085 5.50476 8.29987 5.70829C8.79124 5.91182 9.23771 6.21014 9.61378 6.58622C9.98986 6.9623 10.2882 7.40876 10.4917 7.90013C10.6952 8.3915 10.8 8.91815 10.8 9.45C10.8 9.98185 10.6952 10.5085 10.4917 10.9999C10.2882 11.4912 9.98986 11.9377 9.61378 12.3138C9.23771 12.6899 8.79124 12.9882 8.29987 13.1917C7.8085 13.3952 7.28185 13.5 6.75 13.5C6.21815 13.5 5.6915 13.3952 5.20013 13.1917C4.70876 12.9882 4.26229 12.6899 3.88622 12.3138C3.51014 11.9377 3.21182 11.4912 3.00829 10.9999C2.80476 10.5085 2.7 9.98185 2.7 9.45C2.7 8.91815 2.80476 8.3915 3.00829 7.90013C3.21182 7.40876 3.51014 6.9623 3.88622 6.58622C4.26229 6.21014 4.70876 5.91182 5.20013 5.70829C5.6915 5.50476 6.21815 5.4 6.75 5.4ZM5.62359 14.85H7.87219C10.9814 14.85 13.5 17.3686 13.5 20.4736C13.5 21.0938 12.998 21.6 12.3736 21.6H1.12641C0.502031 21.6 0 21.098 0 20.4736C0 17.3686 2.51859 14.85 5.62359 14.85Z" fill="white" fill-opacity="0.7"/>
</g>
<defs>
<clipPath id="clip0_38_1018">
<rect width="27" height="21.6" fill="white"/>
</clipPath>
</defs>
</svg>
