<svg width="17" height="19" viewBox="0 0 17 19" fill="none" xmlns="http://www.w3.org/2000/svg">
<path d="M2.42857 1.1875C1.08906 1.1875 0 2.25254 0 3.5625V15.4375C0 16.7475 1.08906 17.8125 2.42857 17.8125H14.5714C15.9109 17.8125 17 16.7475 17 15.4375V6.43105C17 5.8002 16.7458 5.19531 16.2904 4.75L13.3571 1.88145C12.9018 1.43613 12.2833 1.1875 11.6382 1.1875H2.42857ZM2.42857 4.75C2.42857 4.09316 2.97121 3.5625 3.64286 3.5625H10.9286C11.6002 3.5625 12.1429 4.09316 12.1429 4.75V7.125C12.1429 7.78184 11.6002 8.3125 10.9286 8.3125H3.64286C2.97121 8.3125 2.42857 7.78184 2.42857 7.125V4.75ZM8.5 10.6875C9.1441 10.6875 9.76181 10.9377 10.2173 11.3831C10.6727 11.8285 10.9286 12.4326 10.9286 13.0625C10.9286 13.6924 10.6727 14.2965 10.2173 14.7419C9.76181 15.1873 9.1441 15.4375 8.5 15.4375C7.8559 15.4375 7.23819 15.1873 6.78274 14.7419C6.3273 14.2965 6.07143 13.6924 6.07143 13.0625C6.07143 12.4326 6.3273 11.8285 6.78274 11.3831C7.23819 10.9377 7.8559 10.6875 8.5 10.6875Z" fill="white"/>
</svg>
