<svg width="131" height="97" viewBox="0 0 131 97" fill="none" xmlns="http://www.w3.org/2000/svg">
<path fill-rule="evenodd" clip-rule="evenodd" d="M47.0264 32.6018C50.617 36.1306 54.5822 44.201 56.7768 49.0323C58.149 52.0528 59.6658 54.9285 60.8858 58.0371C62.092 61.1105 63.3062 64.2215 64.4622 67.461L64.3777 34.4919C63.7933 33.8837 63.0007 33.3587 63.2448 32.0327C63.4038 31.1694 64.2039 30.3082 65.2586 30.2524C66.2543 30.1996 67.2038 30.9915 67.4206 31.8758C67.7965 33.41 66.9501 33.8353 66.3234 34.4919C66.0316 39.7769 66.2575 45.804 66.3029 51.1524C66.3278 54.1145 66.0424 66.0618 66.224 67.5844C66.1993 67.0351 69.2966 59.3423 69.7682 58.186C71.1081 54.9015 76.5346 43.294 78.2137 40.4182C79.3415 38.487 80.7871 36.2836 82.1501 34.4964C82.5925 33.9164 83.3078 33.1442 83.6344 32.5751C83.3935 32.0017 81.0059 29.3969 80.3281 28.5062C77.6256 24.9545 73.5243 18.3584 72.5946 13.9706C70.804 14.1738 66.7783 16.3593 65.3955 16.3085C64.5095 16.2761 59.7904 14.1991 58.1956 13.869C54.9146 24.6641 47.4055 31.5619 47.0264 32.6018Z" fill="white"/>
<path fill-rule="evenodd" clip-rule="evenodd" d="M119.856 48.4251C121.609 48.7141 123.41 47.9198 123.722 49.1045L124.358 55.4244C124.693 59.2797 126.389 73.5452 126.371 75.9002L119.341 74.7259C107.434 73.083 93.558 72.4185 81.8336 75.46C77.9538 76.4665 73.1771 78.1401 70.2843 80.1666C71.1464 80.0805 72.6824 79.6374 73.7014 79.3952C82.4244 77.3229 91.8765 76.9133 100.819 77.0819C107.685 77.2114 117.081 78.0965 123.852 79.3594L130.993 80.6006L127.803 42.9587C126.235 42.7732 121.204 44.2627 119.579 44.6767L119.856 48.4251Z" fill="white"/>
<path fill-rule="evenodd" clip-rule="evenodd" d="M11.0852 48.4287C11.3154 47.6048 11.5274 45.5393 11.4046 44.6651C10.3731 44.1463 4.53327 42.7521 3.27093 42.805L0 80.476C1.0905 80.4142 2.48475 79.9893 3.53867 79.8108C19.2787 77.1456 30.3741 76.3394 46.591 77.8002C51.8453 78.2734 56.2384 79.2925 60.8153 80.4359C58.5063 78.5853 52.7984 76.5267 49.2446 75.6004C45.0228 74.5 39.5945 73.6734 34.8091 73.5348C32.1395 73.4576 29.4965 73.3856 26.7293 73.4071C21.8506 73.4448 9.08217 74.6494 4.58701 75.8521C4.41364 74.3934 5.08689 70.6673 5.23514 68.9892C5.82981 62.2591 6.70058 55.3281 7.37384 48.5109L11.0852 48.4287Z" fill="white"/>
<path fill-rule="evenodd" clip-rule="evenodd" d="M20.1097 63.6775C21.6946 63.6072 23.5822 63.2576 25.2452 63.0895C33.6914 62.2352 42.3041 64.1065 49.8871 67.2929C53.599 68.8526 55.508 70.5563 57.4267 71.4642C54.8672 67.7956 48.3522 64.1928 43.9343 62.5029C37.8021 60.1571 31.9593 59.4113 24.6748 59.084L27.5031 31.7657C32.9309 31.081 38.5912 32.64 42.9693 35.4526C43.5488 35.8249 44.044 36.3027 44.6375 36.5736C43.2726 33.593 39.4034 31.0874 35.9595 29.5104C33.7695 28.5077 26.2194 25.9527 23.4954 26.0846C23.3776 26.3196 20.0703 61.2399 20.1097 63.6775Z" fill="white"/>
<path fill-rule="evenodd" clip-rule="evenodd" d="M86.4551 36.51C88.7742 34.9574 90.6154 33.747 93.7678 32.7321C95.482 32.1801 101.871 30.8959 103.602 31.8379L106.366 59.0506C102.07 59.3961 101.014 59.0517 96.1972 59.9511C90.6664 60.9837 84.4277 62.9168 79.8147 65.9146C78.042 67.0667 74.6149 69.5975 73.7638 71.066C74.4837 70.8352 76.5293 69.4305 77.4056 68.9549C78.6952 68.2551 80.006 67.6253 81.2717 67.0881C84.1693 65.8584 86.5901 65.0775 89.9176 64.2387C94.6231 63.0523 100.656 62.5859 105.68 63.0685C107.439 63.2374 109.254 63.6046 110.86 63.7028L107.759 26.054C103.245 26.0581 94.0885 29.3281 90.1482 32.3412C89.0852 33.1541 86.8181 35.0776 86.4551 36.51Z" fill="white"/>
<path fill-rule="evenodd" clip-rule="evenodd" d="M10.0226 71.8192C14.0346 71.5006 17.2349 70.439 22.9038 70.2111C27.6102 70.0219 32.1215 69.9294 36.7934 70.3926C42.8165 70.99 48.99 72.1797 54.5232 74.3C56.3552 75.0022 57.8357 75.7446 59.4775 76.4664C56.4166 73.9554 54.8617 72.9394 51.0159 71.3171C47.8656 69.988 44.0113 68.8774 40.3022 68.2122C33.816 67.0488 27.77 66.7175 21.1419 66.8288C19.0242 66.8644 16.6496 67.2166 14.665 67.1819L17.4671 39.8556L21.2683 39.7588L21.5975 35.9843C19.2314 35.5135 15.9693 34.1595 13.3714 34.1858L10.0226 71.8192Z" fill="white"/>
<path fill-rule="evenodd" clip-rule="evenodd" d="M109.543 36.0224L109.804 39.7724L113.627 39.8787L116.378 67.2142C112.909 67.032 109.435 66.733 105.963 66.8096C95.211 67.0467 83.8432 68.2115 74.7654 73.8233C74.1749 74.1883 73.6271 74.5553 73.0914 74.9483C72.5681 75.3321 72.0591 75.8686 71.6241 76.1608C72.3066 75.9379 73.1898 75.4316 73.9865 75.1115C74.867 74.7577 75.5809 74.4621 76.5157 74.1071C78.1765 73.4766 80.1585 72.8533 82.0038 72.3901C93.272 69.5608 103.06 69.4993 114.508 70.8712C116.705 71.1345 118.751 71.7061 120.882 71.8707L117.752 34.1799C115.038 34.3858 112.016 35.3219 109.543 36.0224Z" fill="white"/>
<path fill-rule="evenodd" clip-rule="evenodd" d="M41.5765 7.32301L40.2631 6.70353L39.7036 7.40643C38.5063 9.34521 36.279 12.0475 38.5551 13.3463C40.0279 14.187 41.1184 13.2618 41.8489 12.0587C42.3001 11.3156 43.5251 9.5732 43.763 8.83728L42.9755 8.25713C43.5995 6.88507 46.0808 5.77264 48.3341 5.72785C54.9734 5.59614 61.2973 11.3829 67.8963 6.36832C68.075 3.60138 66.1094 6.4628 62.4574 6.77198C59.8826 6.9899 57.2947 6.34271 55.4248 5.42427C55.9514 5.02215 62.9222 2.47692 64.5825 1.82483C65.8891 1.31172 66.7617 1.9508 67.9711 2.41953C69.7773 3.11949 79.7063 6.73559 80.4515 7.21552C80.339 7.85445 78.7362 8.17707 77.5182 8.62131L67.799 12.1274C64.8868 13.1833 65.7019 13.0313 61.3063 11.4564L51.5711 8.00603C51.1072 7.99456 49.3727 8.87437 52.2794 9.89806C54.3956 10.6434 56.6746 11.4594 58.7819 12.231C59.7987 12.6033 64.6082 14.4549 65.3916 14.4826C66.2636 14.5135 76.8605 10.5602 78.5492 9.95041C79.5308 9.59602 81.0378 9.2149 81.6046 8.58534C82.5397 7.54611 81.9781 6.14452 80.8996 5.66599C78.0977 4.42269 71.4764 2.10699 68.1065 0.803935C67.0153 0.381945 65.8996 -0.277563 64.6473 0.125672L55.0581 3.77172C53.6312 4.31744 53.2607 4.7656 51.5888 4.4024C50.4238 4.14934 48.5732 4.14528 47.3026 4.24228C44.5578 4.45152 42.9231 5.9287 41.5765 7.32301Z" fill="white"/>
<path d="M6.52372 92.0743H11.7996L9.15057 86.7547L6.52372 92.0743ZM2.65952 96.7103L8.5319 84.6966H9.76925L15.7082 96.7103H14.0892L12.4627 93.4784H5.84195L4.25632 96.7103H2.65952Z" fill="white"/>
<path d="M27.1121 94.4368C26.586 95.2689 25.8932 95.9042 25.0336 96.3426C24.1777 96.7809 23.1996 97 22.1067 97C20.4802 97 19.139 96.5395 18.0831 95.6145C17.031 94.6895 16.5049 93.5156 16.5049 92.0965C16.5049 90.6738 17.031 89.4999 18.0831 88.5675C19.139 87.6352 20.4802 87.1708 22.1067 87.1708C23.1218 87.1708 24.0406 87.3601 24.8669 87.7428C25.693 88.1217 26.3562 88.6604 26.8638 89.355L25.7116 90.1575C25.3299 89.6299 24.8261 89.2214 24.2001 88.9353C23.5738 88.6492 22.8773 88.508 22.1104 88.508C20.9212 88.508 19.9393 88.8461 19.1613 89.5259C18.3832 90.202 17.9942 91.0527 17.9942 92.0742C17.9942 93.0958 18.3832 93.9465 19.1649 94.6226C19.9467 95.3024 20.9286 95.6404 22.1104 95.6404C22.9328 95.6404 23.6628 95.477 24.2926 95.1539C24.9224 94.8269 25.4745 94.3216 25.9524 93.6344L27.1121 94.4368Z" fill="white"/>
<path d="M31.5432 93.1219H35.1666L33.366 89.5594L31.5432 93.1219ZM28.1828 96.7103L32.8992 87.4158H33.8106L38.564 96.7103H37.0117L35.8076 94.3477H30.9133L29.7166 96.7103H28.1828Z" fill="white"/>
<path d="M44.0733 87.4158C45.5886 87.4158 46.8075 87.8506 47.7375 88.7161C48.6637 89.5854 49.1268 90.7109 49.1268 92.0965C49.1268 93.497 48.6711 94.6152 47.7634 95.4547C46.8557 96.2905 45.6256 96.7103 44.0733 96.7103H39.9682V87.4158H44.0733ZM44.0955 88.7532H41.4131V95.373H44.0955C45.1959 95.373 46.0628 95.0758 46.6926 94.4851C47.3225 93.8945 47.6374 93.0884 47.6374 92.0742C47.6374 91.0935 47.3113 90.2949 46.6592 89.6782C46.0072 89.0615 45.1551 88.7532 44.0955 88.7532Z" fill="white"/>
<path d="M51.4201 96.7103V87.4158H60.1119V88.7756H52.8651V91.0935H57.6222V92.4309H52.8651V95.373H60.512V96.7103H51.4201Z" fill="white"/>
<path d="M62.5794 96.7103V87.4158H63.7835L67.5773 92.8544L71.3786 87.4158H72.5827V96.7103H71.1378V90.0274L67.5773 95.1946L64.0243 90.0274V96.7103H62.5794Z" fill="white"/>
<path d="M75.7801 96.7103V87.3936H77.2472V96.7103H75.7801Z" fill="white"/>
<path d="M90.2553 94.4368C89.7292 95.2689 89.0364 95.9042 88.1768 96.3426C87.3209 96.7809 86.3429 97 85.2499 97C83.6235 97 82.2823 96.5395 81.2264 95.6145C80.1742 94.6895 79.6481 93.5156 79.6481 92.0965C79.6481 90.6738 80.1742 89.4999 81.2264 88.5675C82.2823 87.6352 83.6235 87.1708 85.2499 87.1708C86.2652 87.1708 87.184 87.3601 88.0101 87.7428C88.8363 88.1217 89.4995 88.6604 90.0071 89.355L88.8548 90.1575C88.4732 89.6299 87.9693 89.2214 87.3432 88.9353C86.717 88.6492 86.0206 88.508 85.2537 88.508C84.0644 88.508 83.0826 88.8461 82.3045 89.5259C81.5264 90.202 81.1374 91.0527 81.1374 92.0742C81.1374 93.0958 81.5264 93.9465 82.3081 94.6226C83.09 95.3024 84.0718 95.6404 85.2537 95.6404C86.0762 95.6404 86.806 95.477 87.4359 95.1539C88.0656 94.8269 88.6177 94.3216 89.0957 93.6344L90.2553 94.4368Z" fill="white"/>
<path d="M92.9155 96.7103V84.6966H94.4271V89.4442H101.496V84.6966H102.985V96.7103H101.496V90.8261H94.4271V96.7103H92.9155Z" fill="white"/>
<path d="M106.413 87.4382H107.857V93.3894C107.857 94.2808 108.069 94.8826 108.487 95.1946C108.906 95.5067 109.74 95.6628 110.988 95.6628C112.24 95.6628 113.078 95.5067 113.496 95.1946C113.915 94.8826 114.126 94.2808 114.126 93.3894V87.4382H115.571V93.7682C115.571 94.9086 115.212 95.7297 114.493 96.2384C113.771 96.7475 112.6 97 110.97 97C109.351 97 108.184 96.7511 107.476 96.2496C106.768 95.7482 106.413 94.9235 106.413 93.7682V87.4382Z" fill="white"/>
<path d="M124.422 88.7756H120.221V90.9599H124.444C124.908 90.9599 125.256 90.8669 125.493 90.6812C125.726 90.4992 125.845 90.2242 125.845 89.8602C125.845 89.4999 125.726 89.2288 125.493 89.0467C125.256 88.8647 124.9 88.7756 124.422 88.7756ZM124.911 92.3195H120.221V95.3731H124.911C125.419 95.3731 125.812 95.2393 126.093 94.968C126.371 94.7005 126.512 94.3216 126.512 93.8351C126.512 93.3559 126.371 92.9843 126.093 92.717C125.812 92.4531 125.419 92.3195 124.911 92.3195ZM118.776 96.7103V87.4382H124.467C125.408 87.4382 126.123 87.6314 126.608 88.0215C127.093 88.4078 127.334 88.9798 127.334 89.7301C127.334 90.1092 127.26 90.4435 127.108 90.7369C126.956 91.0304 126.734 91.2681 126.445 91.4501C126.96 91.7399 127.349 92.0929 127.608 92.5126C127.872 92.9286 128.001 93.4004 128.001 93.9205C128.001 94.786 127.712 95.4658 127.138 95.9637C126.56 96.4614 125.763 96.7103 124.748 96.7103H118.776Z" fill="white"/>
</svg>
