<svg width="27" height="24" viewBox="0 0 27 24" fill="none" xmlns="http://www.w3.org/2000/svg">
<path d="M13.5003 0C13.1586 0 12.8211 0.0749852 12.5005 0.2196L0.667196 5.64532C0.266424 5.83279 0.000649346 6.31483 0.000649346 6.8558C0.000649346 7.39676 0.266424 7.87881 0.667196 8.06628L3.10979 9.1857C2.41793 10.5676 2.0256 12.2012 2.0256 13.9205V15.4255C2.0256 16.9467 1.56999 18.516 1.08484 19.7533C0.81063 20.4496 0.49845 21.1351 0.135646 21.7672C0.000649347 21.9975 -0.0373185 22.2974 0.0386172 22.5706C0.114553 22.8437 0.291736 23.0473 0.511106 23.1169L3.21104 23.9739C3.38822 24.0328 3.57806 23.9899 3.73415 23.8668C3.89024 23.7436 3.99993 23.54 4.03368 23.3097C4.39648 21.0173 4.21508 18.9606 3.94509 17.4876C3.81009 16.7271 3.62869 15.9504 3.37557 15.2381V13.9205C3.37557 12.3029 3.80587 10.7765 4.55257 9.55527C5.09678 8.72508 5.80129 8.05556 6.62815 7.64314L13.2514 4.33844C13.5974 4.16704 13.9897 4.38128 14.1247 4.82048C14.2597 5.25968 14.0909 5.7578 13.745 5.92919L7.12173 9.2339C6.59862 9.49635 6.13878 9.89806 5.76332 10.3908L12.4963 13.4759C12.8169 13.6205 13.1544 13.6955 13.4961 13.6955C13.8378 13.6955 14.1753 13.6205 14.4959 13.4759L26.3335 8.06628C26.7342 7.88417 27 7.39676 27 6.8558C27 6.31483 26.7342 5.83279 26.3335 5.64532L14.5001 0.2196C14.1795 0.0749852 13.842 0 13.5003 0ZM5.40052 20.1389C5.40052 22.0296 9.02856 23.9953 13.5003 23.9953C17.9721 23.9953 21.6001 22.0296 21.6001 20.1389L20.9547 12.3512L14.9558 15.1042C14.4875 15.3184 13.9939 15.4255 13.5003 15.4255C13.0067 15.4255 12.5089 15.3184 12.0449 15.1042L6.04597 12.3512L5.40052 20.1389Z" fill="white" fill-opacity="0.7"/>
</svg>
